<svg width="18" height="18" viewBox="0 0 18 18" fill="none" xmlns="http://www.w3.org/2000/svg">
<path fill-rule="evenodd" clip-rule="evenodd" d="M8.99108 0.781099C7.03469 0.77906 5.14153 1.49156 3.65087 2.79091C2.1602 4.09026 1.16947 5.89153 0.856229 7.87193C0.542986 9.85232 0.927706 11.8824 1.94143 13.5983C2.95516 15.3142 4.53165 16.6039 6.38836 17.2361C6.79772 17.3139 6.94934 17.0495 6.94934 16.8267C6.94934 16.6038 6.94934 16.0959 6.94934 15.3911C4.65995 15.9094 4.17478 14.2613 4.17478 14.2613C4.02223 13.7505 3.69814 13.3116 3.26004 13.0226C2.51712 12.5043 3.32068 12.5043 3.32068 12.5043C3.5811 12.5421 3.82974 12.6401 4.04776 12.7909C4.26579 12.9418 4.44749 13.1415 4.57909 13.375C4.69091 13.583 4.84166 13.7662 5.02271 13.9142C5.20376 14.0623 5.41153 14.1722 5.6341 14.2377C5.85667 14.3031 6.08965 14.3229 6.31969 14.2958C6.54973 14.2688 6.77229 14.1954 6.9746 14.0799C7.00632 13.6535 7.18556 13.2528 7.47998 12.95C5.6505 12.7376 3.73004 12.012 3.73004 8.77798C3.71748 7.93993 4.01966 7.12902 4.57403 6.51315C4.32663 5.78455 4.3555 4.98719 4.65489 4.27941C4.65489 4.27941 5.34727 4.05137 6.91901 5.14492C8.26868 4.7649 9.69327 4.7649 11.0429 5.14492C12.6147 4.05137 13.302 4.27941 13.302 4.27941C13.6045 4.98618 13.6352 5.78414 13.3879 6.51315C13.9423 7.12902 14.2445 7.93993 14.2319 8.77798C14.2319 12.0223 12.3064 12.7324 10.4719 12.9241C10.6686 13.1269 10.8205 13.3707 10.9173 13.639C11.014 13.9072 11.0535 14.1937 11.0328 14.4789C11.0328 15.6088 11.0328 16.5209 11.0328 16.7956C11.0328 17.0703 11.1794 17.2828 11.5989 17.205C13.4497 16.5668 15.0194 15.2751 16.0278 13.5603C17.0362 11.8455 17.4178 9.81916 17.1045 7.84261C16.7913 5.86606 15.8036 4.06789 14.3175 2.76882C12.8315 1.46976 10.9438 0.75428 8.99108 0.75V0.781099Z" fill="#231E1B"/>
</svg>
