<svg width="18" height="18" viewBox="0 0 18 18" fill="none" xmlns="http://www.w3.org/2000/svg">
<g clip-path="url(#clip0_93_1382)">
<path d="M4.23121 11.1809C4.23121 12.1398 3.45613 12.9149 2.49714 12.9149C1.53814 12.9149 0.763062 12.1398 0.763062 11.1809C0.763062 10.2219 1.53814 9.44678 2.49714 9.44678H4.23121V11.1809ZM5.09825 11.1809C5.09825 10.2219 5.87333 9.44678 6.83232 9.44678C7.79132 9.44678 8.5664 10.2219 8.5664 11.1809V15.516C8.5664 16.475 7.79132 17.2501 6.83232 17.2501C5.87333 17.2501 5.09825 16.475 5.09825 15.516V11.1809Z" fill="#E01E5A"/>
<path d="M6.8324 4.21815C5.8734 4.21815 5.09832 3.44307 5.09832 2.48408C5.09832 1.52508 5.8734 0.75 6.8324 0.75C7.7914 0.75 8.56648 1.52508 8.56648 2.48408V4.21815H6.8324ZM6.8324 5.09833C7.7914 5.09833 8.56648 5.8734 8.56648 6.8324C8.56648 7.7914 7.7914 8.56648 6.8324 8.56648H2.48408C1.52508 8.56648 0.75 7.7914 0.75 6.8324C0.75 5.8734 1.52508 5.09833 2.48408 5.09833H6.8324Z" fill="#36C5F0"/>
<path d="M13.7818 6.8324C13.7818 5.8734 14.5569 5.09833 15.5159 5.09833C16.4749 5.09833 17.25 5.8734 17.25 6.8324C17.25 7.7914 16.4749 8.56648 15.5159 8.56648H13.7818V6.8324ZM12.9148 6.8324C12.9148 7.7914 12.1397 8.56648 11.1807 8.56648C10.2217 8.56648 9.44666 7.7914 9.44666 6.8324V2.48408C9.44666 1.52508 10.2217 0.75 11.1807 0.75C12.1397 0.75 12.9148 1.52508 12.9148 2.48408V6.8324Z" fill="#2EB67D"/>
<path d="M11.1807 13.782C12.1397 13.782 12.9148 14.557 12.9148 15.516C12.9148 16.475 12.1397 17.2501 11.1807 17.2501C10.2217 17.2501 9.44666 16.475 9.44666 15.516V13.782H11.1807ZM11.1807 12.9149C10.2217 12.9149 9.44666 12.1398 9.44666 11.1809C9.44666 10.2219 10.2217 9.44678 11.1807 9.44678H15.5291C16.4881 9.44678 17.2631 10.2219 17.2631 11.1809C17.2631 12.1398 16.4881 12.9149 15.5291 12.9149H11.1807Z" fill="#ECB22E"/>
</g>
<defs>
<clipPath id="clip0_93_1382">
<rect width="16.5131" height="16.5" fill="white" transform="translate(0.75 0.75)"/>
</clipPath>
</defs>
</svg>
