<svg width="169" height="32" viewBox="0 0 169 32" fill="none" xmlns="http://www.w3.org/2000/svg">
<path d="M37.7478 25.2456V15.3941H35.8849V12.5713H37.7478V10.7884C37.6678 9.26843 38.1249 7.75986 39.0506 6.54843C39.9078 5.50843 41.1992 4.937 42.5478 4.99415C43.7821 5.00557 44.9935 5.30272 46.0906 5.83986L45.3478 8.60557C45.0392 8.44557 44.7078 8.31986 44.3763 8.23986C44.0449 8.14843 43.6906 8.09129 43.3478 8.09129C42.0678 8.09129 41.4278 8.94843 41.4278 10.6627V12.5827H44.9363V15.4056H41.4278V25.257H37.7478V25.2456Z" fill="black"/>
<path d="M58.5936 14.0798C57.565 14.0798 56.5365 14.297 55.5993 14.7198C54.765 15.0855 54.0908 15.737 53.7022 16.5713V25.2455H50.0222V10.9027H53.405V13.9655C53.8508 13.0284 54.5136 12.217 55.3365 11.5884C56.045 11.017 56.9365 10.697 57.8508 10.6855C58.0565 10.6855 58.205 10.6855 58.3079 10.697C58.3993 10.697 58.5022 10.7198 58.5936 10.7427V14.0798Z" fill="black"/>
<path fill-rule="evenodd" clip-rule="evenodd" d="M69.6908 25.5193C68.6051 25.5307 67.5308 25.325 66.5365 24.9136C65.6451 24.5364 64.8337 23.9879 64.1594 23.2907C63.5079 22.605 63.0051 21.805 62.6622 20.925C61.9651 19.0964 61.9651 17.085 62.6622 15.2679C63.0051 14.3879 63.5079 13.5879 64.1594 12.9022C64.8337 12.205 65.6451 11.645 66.5365 11.2793C67.5308 10.8679 68.6165 10.6622 69.6908 10.6736C70.7651 10.6507 71.8394 10.8564 72.8337 11.2793C74.6165 12.0336 76.0108 13.4736 76.6965 15.2793C77.3937 17.1079 77.3937 19.1193 76.6965 20.9364C76.3651 21.8164 75.8622 22.6164 75.2108 23.3022C74.5479 23.9993 73.7365 24.5593 72.8451 24.925C71.8508 25.3364 70.7765 25.5422 69.6908 25.5307V25.5193ZM66.2165 19.8393C66.0222 19.2793 65.9194 18.6964 65.9308 18.1022C65.9308 17.5193 66.0222 16.9364 66.2165 16.3764C66.3879 15.8736 66.6622 15.405 67.0165 15.005C67.3479 14.6279 67.7594 14.3193 68.2051 14.1022C68.6622 13.885 69.1765 13.7707 69.6908 13.7707C70.2051 13.7707 70.7079 13.8736 71.1765 14.0907C71.6337 14.2964 72.0451 14.605 72.3651 14.9822C72.7194 15.3822 72.9822 15.8507 73.1651 16.3536C73.3594 16.9022 73.4622 17.485 73.4508 18.0793C73.4508 18.6736 73.3594 19.2679 73.1651 19.8279C72.9937 20.3307 72.7194 20.7993 72.3651 21.1993C72.0337 21.5764 71.6222 21.8736 71.1765 22.0907C70.2279 22.5136 69.1537 22.5136 68.2165 22.0907C67.7594 21.885 67.3594 21.5764 67.0279 21.1993C66.6851 20.7993 66.4108 20.3422 66.2279 19.8507L66.2165 19.8393Z" fill="black"/>
<path d="M95.7485 25.2458H92.0685V17.2001C92.1371 16.3201 91.9314 15.4401 91.4628 14.6858C91.0742 14.1601 90.4456 13.863 89.7942 13.8973C89.4056 13.8973 89.0285 13.9773 88.6628 14.1144C88.2742 14.263 87.9085 14.4687 87.5771 14.7316C87.2342 15.0058 86.9256 15.3258 86.6628 15.6801C86.3885 16.0458 86.1828 16.4458 86.0571 16.8801V25.2573H82.3771V10.9144H85.7028V13.5658C86.2399 12.6401 87.0514 11.8973 88.0114 11.4287C89.0742 10.903 90.2399 10.6401 91.4171 10.663C92.1828 10.6287 92.9371 10.8001 93.6114 11.1544C94.1599 11.463 94.6056 11.8973 94.9256 12.4344C95.2456 12.9944 95.4628 13.6001 95.5656 14.2401C95.6799 14.9144 95.7485 15.6001 95.7485 16.2973V25.2573V25.2458Z" fill="black"/>
<path d="M110.251 24.5018C109.657 24.7533 109.051 24.9704 108.423 25.1533C107.691 25.3704 106.926 25.4847 106.16 25.4847C105.668 25.4847 105.188 25.4275 104.72 25.2904C104.286 25.1761 103.886 24.959 103.543 24.6733C103.188 24.3761 102.914 23.999 102.731 23.5761C102.514 23.0618 102.411 22.5018 102.434 21.9418V13.6904H100.571V10.879H102.434V6.22754H106.114V10.879H109.166V13.7018H106.114V20.7075C106.068 21.1075 106.228 21.519 106.526 21.7933C106.811 22.0104 107.154 22.1133 107.508 22.1018C107.897 22.1018 108.274 22.0333 108.64 21.9075C109.006 21.7818 109.303 21.6675 109.52 21.5761L110.263 24.479L110.251 24.5018Z" fill="black"/>
<path fill-rule="evenodd" clip-rule="evenodd" d="M118.411 24.9371C119.406 25.3371 120.468 25.5428 121.543 25.5199C123.006 25.5656 124.446 25.1999 125.703 24.4685C126.8 23.8399 127.68 22.9028 128.24 21.7714L125.086 20.8914C124.823 21.4971 124.354 21.9999 123.748 22.2971C123.108 22.6514 122.4 22.8342 121.68 22.8342C121.211 22.8342 120.743 22.7542 120.308 22.5828C119.417 22.2514 118.697 21.5999 118.274 20.7542C118.046 20.2856 117.908 19.7714 117.863 19.2456H128.983C129.028 19.0628 129.051 18.8799 129.051 18.6971C129.063 18.4799 129.063 18.2514 129.063 18.0114C129.063 17.0628 128.891 16.1142 128.56 15.2228C128.228 14.3428 127.726 13.5428 127.074 12.8685C126.4 12.1828 125.6 11.6342 124.708 11.2571C123.714 10.8456 122.64 10.6399 121.566 10.6514C120.48 10.6399 119.394 10.8342 118.388 11.2571C117.486 11.6342 116.663 12.1828 115.988 12.8799C115.326 13.5656 114.811 14.3771 114.48 15.2685C114.126 16.1942 113.954 17.1656 113.954 18.1599C113.954 19.1199 114.137 20.0799 114.491 20.9828C114.834 21.8628 115.36 22.6628 116.011 23.3371C116.697 24.0228 117.508 24.5714 118.4 24.9371H118.411ZM124.08 14.2856C124.8 14.9599 125.223 15.8856 125.268 16.8685H117.794C117.828 16.3656 117.954 15.8742 118.16 15.4171C118.354 14.9942 118.628 14.6171 118.971 14.2971C119.303 13.9885 119.691 13.7371 120.114 13.5656C120.56 13.3942 121.028 13.3028 121.497 13.3028C122.446 13.2799 123.371 13.6342 124.068 14.2742L124.08 14.2856Z" fill="black"/>
<path fill-rule="evenodd" clip-rule="evenodd" d="M137.074 24.7534C137.897 25.142 138.788 25.3363 139.702 25.3249C140.662 25.3249 141.622 25.0963 142.479 24.6506C143.314 24.2277 144.011 23.5649 144.479 22.7534V24.5592C144.491 25.1763 144.377 25.7934 144.137 26.3649C143.931 26.8563 143.611 27.2792 143.199 27.622C142.799 27.9534 142.331 28.2049 141.828 28.3534C141.302 28.5134 140.754 28.5934 140.194 28.582C139.268 28.582 138.354 28.3877 137.519 28.0106C136.719 27.6449 136.011 27.1077 135.451 26.422L133.451 28.3649C134.194 29.2906 135.142 30.0449 136.217 30.5706C137.474 31.1306 138.834 31.3934 140.217 31.3477C141.291 31.3477 142.365 31.1992 143.405 30.8792C144.331 30.5934 145.188 30.1363 145.931 29.542C146.639 28.9706 147.211 28.2392 147.599 27.4163C147.999 26.5249 148.205 25.5534 148.182 24.5706V10.9134H144.971V13.4277C144.445 12.6049 143.737 11.9192 142.902 11.4163C141.999 10.902 140.982 10.6392 139.942 10.662C138.102 10.6392 136.331 11.4277 135.142 12.822C134.548 13.5192 134.079 14.3192 133.771 15.1763C133.439 16.102 133.268 17.0849 133.279 18.0792C133.279 19.0277 133.428 19.9763 133.748 20.8677C134.034 21.7134 134.491 22.502 135.062 23.1763C135.622 23.8392 136.319 24.3763 137.108 24.7534H137.074ZM142.114 22.2049C141.748 22.3306 141.348 22.3992 140.959 22.3992C140.411 22.3992 139.874 22.2963 139.382 22.0677C138.902 21.8506 138.479 21.542 138.114 21.1649C137.748 20.7763 137.474 20.3192 137.279 19.8277C137.074 19.302 136.971 18.742 136.982 18.182C136.982 17.622 137.074 17.0734 137.245 16.5363C137.405 16.022 137.668 15.542 137.999 15.1306C138.319 14.7192 138.731 14.3877 139.188 14.1477C139.668 13.8963 140.205 13.7706 140.742 13.782C141.542 13.782 142.308 14.0563 142.937 14.5477C143.634 15.062 144.171 15.7706 144.479 16.5706V19.9877C144.342 20.3192 144.159 20.6392 143.931 20.9249C143.691 21.2106 143.428 21.4734 143.119 21.6906C142.811 21.9077 142.479 22.0906 142.114 22.2049Z" fill="black"/>
<path fill-rule="evenodd" clip-rule="evenodd" d="M157.2 24.7534C158.022 25.142 158.914 25.3363 159.817 25.3249C160.788 25.3249 161.737 25.0963 162.594 24.6506C163.428 24.2277 164.125 23.5649 164.594 22.7534V24.5592C164.605 25.1763 164.491 25.7934 164.251 26.3649C164.045 26.8563 163.725 27.2792 163.314 27.622C162.914 27.9534 162.445 28.2049 161.942 28.3534C161.417 28.5134 160.857 28.5934 160.308 28.582C159.382 28.582 158.468 28.3877 157.634 28.0106C156.834 27.6449 156.125 27.1077 155.565 26.422L153.565 28.3649C154.308 29.2906 155.257 30.0449 156.331 30.5706C157.588 31.1306 158.948 31.3934 160.32 31.3477C161.405 31.3477 162.48 31.1992 163.508 30.8792C164.422 30.5934 165.28 30.1363 166.034 29.542C166.742 28.9706 167.302 28.2392 167.691 27.4163C168.091 26.5249 168.297 25.5534 168.285 24.5706V10.9134H165.074V13.4277C164.56 12.6049 163.851 11.9192 163.005 11.4163C162.102 10.902 161.085 10.6392 160.045 10.662C158.194 10.6392 156.434 11.4277 155.234 12.822C154.64 13.5192 154.171 14.3192 153.862 15.1763C153.531 16.102 153.359 17.0849 153.371 18.0792C153.371 19.0277 153.52 19.9763 153.84 20.8677C154.137 21.7134 154.582 22.502 155.154 23.1763C155.714 23.8392 156.411 24.3763 157.2 24.7534ZM162.24 22.2049C161.874 22.3306 161.474 22.3992 161.085 22.3992C160.537 22.3992 160 22.2963 159.508 22.0677C159.028 21.8506 158.605 21.542 158.24 21.1649C157.874 20.7763 157.599 20.3192 157.405 19.8277C157.199 19.302 157.097 18.742 157.097 18.182C157.097 17.622 157.188 17.0734 157.36 16.5363C157.52 16.022 157.782 15.542 158.114 15.1306C158.445 14.7192 158.845 14.3877 159.302 14.1477C159.782 13.8963 160.308 13.7706 160.857 13.782C161.657 13.782 162.422 14.0563 163.051 14.5477C163.748 15.062 164.285 15.7706 164.594 16.5706V19.9877C164.457 20.3306 164.274 20.6392 164.045 20.9249C163.805 21.2106 163.542 21.4734 163.234 21.6906C162.925 21.9077 162.594 22.0906 162.228 22.2049H162.24Z" fill="black"/>
<path fill-rule="evenodd" clip-rule="evenodd" d="M7.77084 1.80517C10.9251 -0.446261 14.0908 0.250882 17.0166 3.4166C19.9423 6.59374 23.1766 12.788 22.068 19.348C21.8394 20.7652 21.3594 22.1252 20.6508 23.3709C19.2566 25.7252 16.9594 27.4052 14.2851 28.0337C11.3251 28.788 8.18227 28.3423 5.5537 26.788C5.22227 26.5823 4.90227 26.3423 4.5937 26.0909C2.26227 24.0337 0.856557 21.1309 0.696557 18.0337C0.570843 16.308 0.696557 14.5823 1.0737 12.8909C1.41656 11.3366 1.94227 9.83945 2.61656 8.39945C3.74799 5.80517 5.51941 3.53088 7.77084 1.79374V1.80517ZM5.29084 10.7195C5.65656 9.42803 6.92513 5.69088 9.94227 3.80517C10.0908 3.71374 10.1823 3.54231 10.1823 3.37088C10.1823 3.19945 10.0794 3.03945 9.91941 2.94803C9.75941 2.86803 9.57656 2.86803 9.42799 2.95945C7.65656 4.14803 6.25084 5.80517 5.37084 7.7366C4.94799 8.60517 4.60513 9.50803 4.34227 10.4452C4.30799 10.5823 4.31941 10.7195 4.39941 10.8337C4.46799 10.948 4.58227 11.028 4.71941 11.0623C4.97084 11.1195 5.22227 10.9595 5.30227 10.708L5.29084 10.7195Z" fill="black"/>
<path d="M13.8506 30.3764C17.5877 32.0792 21.9763 31.5192 25.1649 28.9135C30.5134 24.4564 31.9991 15.3478 31.9991 15.3478C31.9991 15.3478 32.9477 10.6278 31.1991 7.9078C29.462 5.1878 25.1534 5.21066 21.222 6.55923C22.982 10.1364 23.9534 14.0449 24.0563 18.0221C24.0106 24.0221 19.7477 29.1764 13.8391 30.3649" fill="black"/>
</svg>
